<svg width="99" height="24" viewBox="0 0 99 24" fill="none" xmlns="http://www.w3.org/2000/svg">
<g clip-path="url(#clip0_154_8333)">
<path d="M14.6019 21.5877V6.0134L4.6709 1.14367L7.00278 -0.00128365L16.6842 4.74734V20.5639L14.6019 21.5877Z" fill="#0C0C0C"/>
<path d="M-0.000244141 3.43373V19.2502L9.68489 23.9989L12.5159 22.6117V7.2796L2.33536 2.28877L-0.000244141 3.43373ZM10.4299 17.4961L6.25784 15.4521V6.50162L10.4299 8.54565V17.4961ZM2.08578 4.45758L4.17181 5.48143V16.7181L10.4299 19.786V22.0759L2.08578 17.9879V4.45758Z" fill="#0C0C0C"/>
<path d="M25.9219 20.3371V2.25272H28.3767V18.2197H37.5291V20.3371H25.9219Z" fill="#0C0C0C"/>
<path d="M39.6262 4.8729V2.25271H42.1332V4.8729H39.6262ZM42.0289 7.16647V20.3371H39.7268V7.1628H42.0289V7.16647Z" fill="#0C0C0C"/>
<path d="M47.0653 11.1442C46.9125 11.5479 46.8343 11.9846 46.8343 12.4543V20.3369H44.5322V7.16259H46.8343V8.94974C47.259 8.29653 47.8065 7.79011 48.4696 7.43782C49.1327 7.08553 49.8739 6.90938 50.6935 6.90938C51.513 6.90938 52.2878 7.1002 52.9173 7.48919C53.5468 7.87819 54.0423 8.42864 54.3999 9.15158C54.8767 8.44699 55.4913 7.89653 56.2401 7.50387C56.9888 7.11121 57.8009 6.91305 58.6688 6.91305C60.0173 6.91305 61.0901 7.34608 61.891 8.20846C62.6918 9.07452 63.0904 10.2195 63.0904 11.647V20.3369H60.7883V12.2525C60.7883 11.2286 60.5574 10.436 60.0992 9.87085C59.641 9.30571 58.9817 9.02681 58.1324 9.02681C57.7077 9.02681 57.2942 9.11855 56.8919 9.30204C56.4896 9.48552 56.1395 9.73874 55.8303 10.058C55.5584 10.3773 55.346 10.7369 55.1896 11.1406C55.0369 11.5442 54.9586 11.9809 54.9586 12.4507V20.3332H52.6566V12.2488C52.6566 11.225 52.4256 10.4323 51.9674 9.86718C51.5092 9.30571 50.8499 9.02314 50.0006 9.02314C49.5759 9.02314 49.1625 9.11488 48.7602 9.29837C48.3579 9.48185 48.0077 9.73507 47.6985 10.0543C47.4266 10.3736 47.2143 10.7332 47.0578 11.1369L47.0653 11.1442Z" fill="#0C0C0C"/>
<path d="M65.4707 4.8729V2.25271H67.9777V4.8729H65.4707ZM67.8734 7.16647V20.3371H65.5713V7.1628H67.8734V7.16647Z" fill="#0C0C0C"/>
<path d="M70.3806 20.3369V7.16259H72.6827V8.94974C73.1446 8.29653 73.7183 7.79011 74.4074 7.43782C75.0965 7.08553 75.8527 6.90938 76.6722 6.90938C78.0356 6.90938 79.1196 7.33874 79.9205 8.19378C80.7214 9.04883 81.1199 10.2011 81.1199 11.6433V20.3332H78.8179V12.2488C78.8179 11.2066 78.5794 10.4103 78.1026 9.85617C77.6258 9.30204 76.933 9.02681 76.0315 9.02681C75.1301 9.02681 74.3217 9.34974 73.6661 9.99562C73.0105 10.6415 72.6827 11.4672 72.6827 12.4764V20.3332H70.3806V20.3369Z" fill="#0C0C0C"/>
<path d="M93.7996 17.4636C93.7996 17.9517 93.8145 18.4471 93.8518 18.9499C93.8853 19.4526 93.9375 19.915 94.0045 20.3333H91.7285C91.7136 20.1829 91.695 20.0104 91.6764 19.8159C91.6577 19.6214 91.6428 19.3425 91.6242 18.9719C91.1995 19.4599 90.6259 19.8453 89.9107 20.1315C89.1955 20.4177 88.4207 20.5609 87.5825 20.5609C86.3048 20.5609 85.2469 20.2086 84.4125 19.504C83.5781 18.7994 83.1609 17.882 83.1609 16.759C83.1609 15.6361 83.5669 14.6966 84.3753 13.9994C85.1836 13.3022 86.4762 12.7847 88.2493 12.4508L91.5721 11.7976V10.9902C91.5721 10.3003 91.3411 9.78289 90.8829 9.43059C90.421 9.0783 89.7505 8.90215 88.8639 8.90215C87.9774 8.90215 87.3143 9.08197 86.8189 9.44527C86.3235 9.80857 86.0329 10.3407 85.951 11.0453H83.701C83.8016 9.73518 84.3231 8.71867 85.2618 7.99573C86.2005 7.27279 87.4447 6.91316 88.9943 6.91316C90.5439 6.91316 91.6913 7.23977 92.5368 7.89665C93.3824 8.55353 93.8034 9.47463 93.8034 10.6673V17.4673L93.7996 17.4636ZM90.503 17.893C91.2182 17.3388 91.5758 16.6599 91.5758 15.8526V13.559L88.8639 14.1132C87.5862 14.3664 86.6997 14.682 86.2043 15.071C85.7088 15.4599 85.463 15.9847 85.463 16.6563C85.463 17.3278 85.6827 17.7976 86.126 18.1682C86.5693 18.5388 87.1579 18.7223 87.888 18.7223C88.9086 18.7223 89.7803 18.4471 90.4955 17.893H90.503Z" fill="#0C0C0C"/>
<path d="M98.5565 2.25271V20.3371H96.2544V2.25271H98.5565Z" fill="#0C0C0C"/>
</g>
<defs>
<clipPath id="clip0_154_8333">
<rect width="99" height="24" fill="white"/>
</clipPath>
</defs>
</svg>
